# xmcd
#
# Track frame offsets:
#	150
#	25018
#	38815
#	49504
#	50400
#	72184
#	78470
#	82880
#	94864
#	106904
#	110754
#	116193
#	119784
#	130473
#	140476
#	161840
#	165907
#
# Disc length: 2240 seconds
#
# Revision: 0
# Processed by: cddbd v1.5.2PL0 Copyright (c) Steve Scherf et al.
# Submitted via: EasyCDDAExtractor 15.2.5.1
#
DISCID=e708be11
DTITLE=Don Gere - Werewolves on wheels (OST)
DYEAR=1900
DGENRE=
TTITLE0=werewolves on wheels (main theme)
TTITLE1=mount shasta home
TTITLE2=ritual
TTITLE3=''one''
TTITLE4=ritual 2
TTITLE5=the devil's advocates
TTITLE6=the devil's advocates (reprise)
TTITLE7=one foot in heaven
TTITLE8=burning grass
TTITLE9=tarot
TTITLE10=tarot trail
TTITLE11=dust bowl
TTITLE12=the devil's advocates 2
TTITLE13=ritual 3
TTITLE14=werewolves on wheels (end theme)
TTITLE15=radio record 1
TTITLE16=radio record 2
EXTD=
EXTT0=
EXTT1=
EXTT2=
EXTT3=
EXTT4=
EXTT5=
EXTT6=
EXTT7=
EXTT8=
EXTT9=
EXTT10=
EXTT11=
EXTT12=
EXTT13=
EXTT14=
EXTT15=
EXTT16=
PLAYORDER=
